PathFileType	4	(X/Y/Z)	47_1_49_p1_0-615_filt_butterworth.trc
DataRate	CameraRate	NumFrames	NumMarkers	Units	OrigDataRate	OrigDataStartFrame	OrigNumFrames
59.0	59.0	4	27	m	59.0	0	615
Frame#	Time	RHip			RKnee			RAnkle			RBigToe			RSmallToe			RHeel			LHip			LKnee			LAnkle			LBigToe			LSmallToe			LHeel			Neck			Head			Nose			RShoulder			RElbow			RWrist			RThumb			RIndex			RPinky			LShoulder			LElbow			LWrist			LThumb			LIndex			LPinky			
		X1	Y1	Z1	X2	Y2	Z2	X3	Y3	Z3	X4	Y4	Z4	X5	Y5	Z5	X6	Y6	Z6	X7	Y7	Z7	X8	Y8	Z8	X9	Y9	Z9	X10	Y10	Z10	X11	Y11	Z11	X12	Y12	Z12	X13	Y13	Z13	X14	Y14	Z14	X15	Y15	Z15	X16	Y16	Z16	X17	Y17	Z17	X18	Y18	Z18	X19	Y19	Z19	X20	Y20	Z20	X21	Y21	Z21	X22	Y22	Z22	X23	Y23	Z23	X24	Y24	Z24	X25	Y25	Z25	X26	Y26	Z26	X27	Y27	Z27	
0	0.0	0.3531243071509744	0.43114971750269826	-0.23383650023586577	0.3395358277610682	0.6695113404454966	0.13868128692422432	0.2838932721070566	0.9220712397332308	0.5276629994178946	0.3561194896380198	0.6768882034082622	0.6507074404830642	0.4016915115145384	0.7578694543728877	0.6417657107421357	0.25107349941654944	0.987983205444493	0.5591662161208486	0.15499678805298198	0.38392741703636335	-0.20015357261566044	0.13111323430981087	0.5905763483400273	0.16356838707514942	0.12902396824588305	0.8239114547399222	0.5251898329810456	0.20205442460622036	0.6446432701160683	0.665958483176176	0.12644874559573424	0.70156478280734	0.6674809106475845	0.11540048602754845	0.9205199743768748	0.5556764403291813	0.27653452130084105	0.11682966359259726	-0.7155703743855137	0.3145460091107005	-0.0955232483709495	-0.8809798656489852	0.3208284185389035	-0.07123044022667097	-0.733274676632362	0.43061807828353144	0.19477969701577308	-0.6531573511869269	0.4773938514366225	0.35400201571241635	-0.41640782626557277	0.3975304856340377	0.3023975955539343	-0.16301075967604747	0.2768962290277831	0.3075773490137558	-0.060195347746321994	0.2683619616507371	0.3251715701258041	-0.04824390778116984	0.3032394014652018	0.35622841763928886	-0.06623748171979416	0.12754296812219326	0.1391623028189467	-0.6300458274888494	0.05651391783964586	0.23298020484694126	-0.36075158721463796	0.21440318842500602	0.2594377549713791	-0.14343059532284924	0.3112667057531992	0.25785250770864604	-0.09177000979151881	0.31041476366303133	0.2776450174525183	-0.04579627421375787	0.24729588880759845	0.3423571941450913	-0.05293040300908894
1	0.0169491525423728	0.35309966076411947	0.4310679940182445	-0.23408762254070264	0.3394994357437941	0.6696409821979924	0.13874245149330522	0.28394185434298264	0.9218614047605725	0.5276213684816549	0.3561179427092148	0.6743882528227902	0.6520704801264128	0.40536692299868227	0.749736421412921	0.639311182910229	0.25101049694167055	0.9877409619099062	0.5582043119498147	0.1530497187384271	0.38109694453167564	-0.20146464033897737	0.13050990164714227	0.5920175949840519	0.16650806237240381	0.12911470027873004	0.8239378502653706	0.5249935012680871	0.20134365382702582	0.6482904873555333	0.6661872162954403	0.12678028581503825	0.7008411717715275	0.6658907935601229	0.11555299602625563	0.9204539039898373	0.5548966162856188	0.27655188327980873	0.1171737426050826	-0.715304151563937	0.3146304529467365	-0.09543146841405643	-0.8809272195800179	0.32081452295629104	-0.07108294634773385	-0.7332950903846025	0.42971121130833406	0.19842295287837353	-0.6546759313206025	0.47641121778178597	0.3536315813443548	-0.41614882164964184	0.3962500574328053	0.30355953319170914	-0.16624320860594716	0.2790107889159092	0.304527185358162	-0.06066319509277952	0.26830624707192224	0.3251563848072249	-0.048215577674741564	0.30306142847672585	0.3564527678486441	-0.06623013585033741	0.12765828842488922	0.13780920947795694	-0.6315997999646926	0.05677284499911386	0.23198521542199108	-0.36296527112490984	0.21444069570967517	0.2591738934833923	-0.14369341265698116	0.3109988312560387	0.2571917973100632	-0.09360171707025998	0.31031630989291004	0.277692441237735	-0.04585742479722042	0.24746817798382545	0.33946868483059467	-0.052288155105023014
2	0.0338983050847457	0.35313095058651073	0.430790026186896	-0.23485954487440702	0.3394839243673864	0.6697416974426067	0.13878534110311186	0.28396486201814247	0.9217860259226229	0.5275922426679928	0.3560275227710644	0.6743871614269383	0.6523840802989159	0.4070015205710698	0.7461900882646348	0.6386704751106566	0.250998988845923	0.9877713496485354	0.5578775679425784	0.15186658611701864	0.37939616558879896	-0.2022510398039042	0.1302151571411733	0.593409912194594	0.16866029812223549	0.12917446449425948	0.8239620491209685	0.5248794744855049	0.20153869327174295	0.6489371548082234	0.6655232666560591	0.12704114775185651	0.7000708051147136	0.6641275591803492	0.11566166118186287	0.9204284143084824	0.5544469018541865	0.27651881544313855	0.11726496603861812	-0.7154943045635912	0.31468038484252175	-0.0953042393275629	-0.880873689980597	0.32078262860620893	-0.07097807739308559	-0.73334964301467	0.4293293042590914	0.20223160286547875	-0.6562856392364063	0.47599629135602506	0.353526239185011	-0.41606210855620673	0.39563517198265735	0.30560733866612094	-0.16817798743437984	0.27917001707532246	0.30409996413726353	-0.06146973067803796	0.2682403198157036	0.3252037709803425	-0.048205059767600276	0.30300639741236424	0.35651660246980577	-0.06620012836773571	0.12772062503421353	0.13743176003235774	-0.6320095730936546	0.05692380049753447	0.2314127770495058	-0.36427970161768536	0.2144078601575526	0.25879904748677457	-0.1444379920846036	0.31082076256677305	0.2567692621230781	-0.09472955841549695	0.31025170077546294	0.27770016556099497	-0.04592098844294107	0.24748463737247314	0.3392419003715278	-0.052235478884270825
3	0.0508474576271186	0.3532112138434147	0.4303697779732338	-0.23600757288400834	0.3394959896222849	0.6698012929873894	0.13881715514845058	0.28397896792794386	0.9218131991522452	0.527564747041696	0.3559530305039866	0.6757249501555459	0.651878886896194	0.4072996500768451	0.7458362660843412	0.6397043190667123	0.2510409921981672	0.9879852844923483	0.5583061015648983	0.151485126894198	0.37889205131043696	-0.202471383270952	0.13049214959360614	0.5948425459151815	0.16973650013465247	0.12920179251315111	0.8239762366262742	0.524859488036323	0.2031919177172105	0.6464167406743436	0.6639357283175672	0.1272062528773335	0.6994915407431381	0.6629062574630444	0.11571847474570224	0.9204304336806826	0.5544162831004302	0.27643063350430436	0.11701116495840591	-0.7163230177863421	0.3146948709592243	-0.09516728292492738	-0.8808146917794312	0.32073249719775576	-0.07092582918118732	-0.733433867968934	0.4296370592900183	0.20525371309463206	-0.6575735115688736	0.47632447264676264	0.3537495906938223	-0.4161870233284766	0.39587941629776735	0.3077858322903616	-0.16918176382658856	0.2779626313411768	0.30558397710285246	-0.06230530768553872	0.2681882841951534	0.32528494934861557	-0.04821050810802771	0.30308433191334366	0.3564427951085743	-0.06615103536431484	0.1277140417922485	0.1379895004631655	-0.6313431004432802	0.0569604678291504	0.231282557966734	-0.3646335137887043	0.21432176745669146	0.25835415425259334	-0.14551596938579384	0.31074921926174864	0.2565913020855619	-0.09510029612403958	0.3102326888050078	0.27765975455889347	-0.04597959774992097	0.24739737828291714	0.34081493073244523	-0.05257703091136377
